<svg viewBox="0 0 512 512" xml:space="preserve" xmlns="http://www.w3.org/2000/svg"><path d="M271 127c8.833 0 16-7.167 16-16V79c0-8.833-7.167-16-16-16s-16 7.167-16 16v32c0 8.833 7.167 16 16 16zm0 288c-8.833 0-16 7.167-16 16v32c0 8.833 7.167 16 16 16s16-7.167 16-16v-32c0-8.833-7.167-16-16-16zm-124.438-42.166-22.625 22.625c-6.25 6.249-6.25 16.374 0 22.624s16.375 6.25 22.625 0l22.625-22.624c6.25-6.271 6.25-16.376 0-22.625-6.249-6.251-16.375-6.272-22.625 0zM127 271c0-8.833-7.167-16-16-16H79c-8.833 0-16 7.167-16 16s7.167 16 16 16h32c8.833 0 16-7.167 16-16zm19.541-101.833c6.251 6.25 16.376 6.25 22.625 0 6.251-6.25 6.251-16.375 0-22.625l-22.625-22.625c-6.25-6.25-16.374-6.25-22.625 0-6.25 6.25-6.25 16.375 0 22.625l22.625 22.625zM335 159c-11.188 0-21.812 2.167-32 5.208-10.188-3.042-20.812-5.208-32-5.208-61.75 0-112 50.25-112 112s50.25 112 112 112c11.188 0 21.812-2.166 32-5.209 10.188 3.043 20.812 5.209 32 5.209 61.75 0 112-50.25 112-112s-50.25-112-112-112zm-79.771 190.417C218.583 342.084 191 309.791 191 271c0-38.792 27.583-71.083 64.229-78.417C235.334 212.812 223 240.458 223 271s12.334 58.188 32.229 78.417z" fill="#ffffff" class="fill-1d1d1b"></path></svg>